<svg xmlns="http://www.w3.org/2000/svg" viewBox="0 0 640 724" width="640" height="724" role="img" aria-label="Het Team Juridische Zaken">
  <path fill="#AE986F" fill-rule="evenodd" d="M425.5 0.0L638.0 -0.5L639.5 1.0L639.5 448.0L638.5 449.0L638.5 465.0L637.5 466.0L637.5 474.0L636.5 475.0L635.5 488.0L634.5 489.0L634.5 494.0L632.5 499.0L631.5 508.0L629.5 512.0L628.5 519.0L627.5 520.0L622.5 537.0L620.5 540.0L620.5 542.0L616.5 550.0L616.5 552.0L606.5 572.0L604.5 574.0L602.5 579.0L598.5 584.0L597.5 587.0L585.5 604.0L576.5 614.0L576.5 615.0L568.5 623.0L568.5 624.0L566.0 625.5L565.5 627.0L547.0 644.5L546.0 644.5L532.0 656.5L528.0 658.5L525.0 661.5L510.0 671.5L500.0 676.5L498.0 678.5L489.0 682.5L487.0 684.5L479.0 688.5L477.0 688.5L461.0 696.5L456.0 697.5L448.0 701.5L446.0 701.5L430.0 707.5L427.0 707.5L423.0 709.5L420.0 709.5L419.0 710.5L409.0 712.5L408.0 713.5L404.0 713.5L403.0 714.5L395.0 715.5L394.0 716.5L390.0 716.5L389.0 717.5L378.0 718.5L377.0 719.5L371.0 719.5L370.0 720.5L364.0 720.5L363.0 721.5L354.0 721.5L353.0 722.5L342.0 722.5L341.0 723.5L298.0 723.5L297.0 722.5L285.0 722.5L284.0 721.5L276.0 721.5L275.0 720.5L268.0 720.5L267.0 719.5L255.0 718.5L254.0 717.5L244.0 716.5L243.0 715.5L240.0 715.5L235.0 713.5L231.0 713.5L230.0 712.5L219.0 710.5L215.0 708.5L212.0 708.5L211.0 707.5L188.0 700.5L185.0 698.5L178.0 696.5L173.0 693.5L171.0 693.5L166.0 690.5L164.0 690.5L146.0 681.5L144.0 679.5L137.0 676.5L127.0 669.5L124.0 668.5L93.0 645.5L86.0 638.5L85.0 638.5L60.5 613.0L60.5 612.0L49.5 599.0L34.5 576.0L31.5 569.0L29.5 567.0L24.5 557.0L24.5 555.0L20.5 548.0L20.5 546.0L16.5 538.0L16.5 536.0L10.5 520.0L10.5 517.0L7.5 509.0L7.5 506.0L6.5 505.0L6.5 501.0L5.5 500.0L5.5 496.0L4.5 495.0L4.5 491.0L3.5 490.0L2.5 477.0L1.5 476.0L1.5 469.0L0.5 468.0L0.5 455.0L-0.5 454.0L-0.5 345.0L25.5 345.0L25.5 440.0L26.5 441.0L26.5 461.0L27.5 462.0L28.5 479.0L29.5 480.0L29.5 485.0L30.5 486.0L30.5 490.0L31.5 491.0L31.5 495.0L32.5 496.0L35.5 511.0L36.5 512.0L41.5 529.0L44.5 534.0L46.5 541.0L55.5 559.0L57.5 561.0L58.5 564.0L69.5 581.0L79.5 593.0L79.5 594.0L85.5 600.0L85.5 601.0L106.0 621.5L107.0 621.5L113.0 627.5L114.0 627.5L130.0 640.5L139.0 646.5L142.0 647.5L147.0 651.5L169.0 662.5L171.0 664.5L173.0 664.5L182.0 669.5L184.0 669.5L197.0 675.5L202.0 676.5L205.0 678.5L208.0 678.5L211.0 680.5L214.0 680.5L215.0 681.5L217.0 681.5L221.0 683.5L224.0 683.5L228.0 685.5L231.0 685.5L232.0 686.5L235.0 686.5L240.0 688.5L244.0 688.5L249.0 690.5L253.0 690.5L254.0 691.5L265.0 692.5L266.0 693.5L272.0 693.5L273.0 694.5L279.0 694.5L280.0 695.5L290.0 695.5L291.0 696.5L306.0 696.5L307.0 697.5L332.0 697.5L333.0 696.5L359.0 695.5L360.0 694.5L366.0 694.5L367.0 693.5L373.0 693.5L374.0 692.5L385.0 691.5L386.0 690.5L390.0 690.5L395.0 688.5L399.0 688.5L400.0 687.5L407.0 686.5L408.0 685.5L418.0 683.5L419.0 682.5L439.0 676.5L450.0 671.5L452.0 671.5L490.0 652.5L510.0 639.5L522.0 630.5L535.0 618.5L536.0 618.5L550.5 604.0L550.5 603.0L562.5 590.0L578.5 567.0L593.5 538.0L593.5 536.0L597.5 528.0L597.5 526.0L603.5 510.0L603.5 507.0L604.5 506.0L604.5 503.0L605.5 502.0L605.5 499.0L607.5 494.0L608.5 484.0L609.5 483.0L609.5 478.0L610.5 477.0L610.5 471.0L611.5 470.0L611.5 459.0L612.5 458.0L612.5 26.0L426.0 25.5L425.5 1.0ZM39.5 117.0L180.5 117.0L180.0 150.5L127.5 151.0L127.0 344.5L92.5 344.0L92.5 151.0L40.0 150.5L39.5 118.0ZM267.5 118.0L277.0 117.5L278.0 128.5L288.0 128.5L289.0 117.5L298.5 118.0L298.0 150.5L288.5 150.0L288.0 137.5L277.5 138.0L277.0 150.5L267.5 150.0L267.5 119.0ZM305.5 118.0L333.5 118.0L333.0 124.5L316.5 125.0L317.0 129.5L331.5 130.0L331.0 136.5L317.0 136.5L316.5 142.0L333.0 142.5L333.0 150.5L307.0 150.5L305.5 149.0L305.5 119.0ZM338.5 118.0L369.5 118.0L369.0 125.5L359.5 126.0L359.5 149.0L358.0 150.5L350.0 150.5L348.5 149.0L348.5 126.0L339.0 125.5L338.5 119.0ZM192.5 169.0L207.0 168.5L208.0 169.5L213.0 169.5L214.0 170.5L220.0 171.5L230.0 176.5L234.0 179.5L241.5 187.0L244.5 193.0L246.5 195.0L250.5 205.0L251.5 217.0L252.5 218.0L252.5 270.0L251.0 271.5L184.0 271.5L183.5 300.0L186.5 306.0L191.0 309.5L196.0 311.5L204.0 311.5L211.0 308.5L212.5 307.0L215.5 301.0L216.5 295.0L218.0 293.5L251.0 293.5L252.5 295.0L252.5 300.0L251.5 301.0L250.5 311.0L244.5 324.0L241.5 328.0L234.0 335.5L220.0 343.5L218.0 343.5L214.0 345.5L210.0 345.5L209.0 346.5L191.0 346.5L190.0 345.5L186.0 345.5L185.0 344.5L179.0 343.5L168.0 337.5L157.5 327.0L150.5 313.0L149.5 305.0L148.5 304.0L148.5 293.0L147.5 292.0L147.5 223.0L148.5 222.0L148.5 212.0L149.5 211.0L150.5 202.0L157.5 188.0L167.0 178.5L177.0 172.5L179.0 172.5L183.0 170.5L186.0 170.5L187.0 169.5L192.0 169.5ZM312.5 169.0L326.0 168.5L327.0 169.5L332.0 169.5L333.0 170.5L340.0 171.5L350.0 176.5L361.5 187.0L364.5 193.0L366.5 195.0L366.5 197.0L368.5 200.0L368.5 202.0L370.5 206.0L370.5 210.0L371.5 211.0L371.5 219.0L372.5 220.0L372.5 344.0L337.0 344.5L336.0 327.5L334.5 330.0L320.0 343.5L318.0 343.5L315.0 345.5L311.0 345.5L310.0 346.5L296.0 346.5L295.0 345.5L292.0 345.5L291.0 344.5L286.0 343.5L281.0 340.5L272.5 332.0L267.5 322.0L266.5 315.0L265.5 314.0L265.5 307.0L264.5 306.0L265.5 283.0L266.5 282.0L266.5 276.0L267.5 275.0L267.5 272.0L268.5 271.0L269.5 266.0L275.5 256.0L284.0 248.5L290.0 245.5L292.0 245.5L296.0 243.5L299.0 243.5L300.0 242.5L305.0 242.5L306.0 241.5L336.5 242.0L336.5 217.0L333.5 210.0L329.0 205.5L327.0 205.5L326.0 204.5L318.0 203.5L317.0 204.5L311.0 205.5L303.5 212.0L301.5 215.0L300.5 220.0L299.0 221.5L265.5 221.0L266.5 211.0L267.5 210.0L267.5 207.0L268.5 206.0L269.5 201.0L277.5 187.0L284.0 180.5L291.0 175.5L303.0 170.5L312.0 169.5ZM453.5 169.0L464.0 168.5L465.0 169.5L472.0 170.5L478.0 173.5L482.0 177.5L483.0 177.5L490.0 185.5L491.0 185.5L499.0 177.5L508.0 171.5L510.0 171.5L514.0 169.5L519.0 169.5L520.0 168.5L532.0 168.5L533.0 169.5L537.0 169.5L547.0 173.5L551.0 176.5L558.5 185.0L563.5 196.0L563.5 200.0L564.5 201.0L564.5 344.0L529.5 344.0L529.5 219.0L526.5 211.0L521.0 205.5L519.0 204.5L515.0 204.5L514.0 203.5L506.0 204.5L502.0 206.5L499.5 209.0L496.5 215.0L496.5 219.0L495.5 220.0L495.5 344.0L461.0 344.5L459.5 343.0L459.5 216.0L456.5 210.0L453.0 206.5L445.0 203.5L436.0 204.5L429.5 210.0L426.5 217.0L426.5 223.0L425.5 224.0L425.5 344.0L390.5 344.0L390.5 171.0L425.0 170.5L425.5 186.0L427.0 186.5L427.5 185.0L441.0 172.5L449.0 169.5L453.0 169.5ZM198.5 204.0L202.0 203.5L210.0 206.5L215.5 213.0L215.5 215.0L216.5 216.0L216.5 243.0L183.5 243.0L183.5 216.0L186.5 210.0L190.0 206.5L194.0 204.5L198.0 204.5ZM324.5 269.0L329.0 268.5L330.0 269.5L336.5 270.0L336.5 301.0L333.5 308.0L329.0 312.5L325.0 314.5L323.0 314.5L322.0 315.5L315.0 315.5L314.0 314.5L311.0 314.5L304.5 309.0L302.5 306.0L302.5 304.0L300.5 300.0L300.5 286.0L301.5 285.0L302.5 280.0L305.5 276.0L315.0 270.5L324.0 269.5Z"></path>
  <path fill="#0D1F2E" fill-rule="evenodd" d="M93.5 393.0L111.5 393.0L111.5 455.0L108.5 462.0L102.0 467.5L95.0 468.5L94.0 469.5L77.0 469.5L74.5 468.0L75.0 453.5L92.5 453.0L93.0 393.5ZM119.5 393.0L137.5 393.0L137.5 451.0L140.0 453.5L148.0 453.5L150.5 451.0L150.5 393.0L168.0 392.5L169.5 394.0L169.5 454.0L168.5 455.0L168.5 458.0L165.5 463.0L160.0 467.5L154.0 468.5L153.0 469.5L136.0 469.5L135.0 468.5L131.0 468.5L122.5 463.0L119.5 458.0L119.5 455.0L118.5 454.0L119.0 393.5ZM176.5 393.0L213.0 392.5L219.0 395.5L223.5 400.0L225.5 404.0L225.5 425.0L222.5 431.0L225.5 436.0L225.5 439.0L226.5 440.0L226.5 467.0L224.0 469.5L210.0 469.5L207.5 468.0L207.5 441.0L205.0 438.5L195.5 439.0L195.5 467.0L193.0 469.5L179.0 469.5L177.0 468.5L176.5 394.0ZM233.5 393.0L251.5 393.0L251.5 468.0L250.0 469.5L236.0 469.5L233.5 468.0L233.5 394.0ZM259.5 393.0L297.0 392.5L302.0 394.5L307.5 400.0L309.5 403.0L309.5 406.0L310.5 407.0L310.5 454.0L309.5 455.0L309.5 458.0L306.5 463.0L304.0 465.5L298.0 468.5L294.0 468.5L293.0 469.5L262.0 469.5L259.5 468.0L259.5 394.0ZM318.5 393.0L335.0 392.5L336.5 394.0L336.5 467.0L334.0 469.5L320.0 469.5L317.5 468.0L318.0 393.5ZM355.5 393.0L390.5 393.0L390.0 407.5L388.0 408.5L364.0 408.5L362.5 410.0L363.0 419.5L368.0 421.5L371.0 421.5L372.0 422.5L375.0 422.5L376.0 423.5L386.0 425.5L389.0 427.5L391.5 431.0L392.5 433.0L392.5 457.0L390.5 461.0L385.0 466.5L381.0 468.5L377.0 468.5L376.0 469.5L347.0 469.5L344.5 468.0L345.0 453.5L372.0 453.5L374.5 450.0L374.5 442.0L373.0 439.5L368.0 438.5L364.0 436.5L360.0 436.5L359.0 435.5L352.0 434.5L344.5 428.0L344.5 426.0L343.5 425.0L343.5 406.0L345.5 401.0L348.5 397.0L355.0 393.5ZM411.5 393.0L447.5 393.0L447.0 407.5L445.0 408.5L419.0 408.5L417.5 410.0L417.5 452.0L419.0 453.5L447.0 453.5L447.5 468.0L445.0 469.5L416.0 469.5L415.0 468.5L411.0 468.5L407.0 466.5L400.5 459.0L400.5 457.0L399.5 456.0L399.5 405.0L402.5 399.0L406.0 395.5L411.0 393.5ZM455.5 393.0L473.5 393.0L474.0 422.5L491.5 422.0L491.5 394.0L493.0 392.5L510.5 393.0L510.5 468.0L508.0 469.5L494.0 469.5L491.5 467.0L491.0 438.5L473.5 439.0L473.0 468.5L471.0 469.5L457.0 469.5L454.5 467.0L455.0 393.5ZM518.5 393.0L563.0 392.5L564.5 394.0L564.5 406.0L562.0 408.5L536.5 409.0L537.0 422.5L558.0 422.5L560.5 424.0L560.5 437.0L559.0 438.5L538.0 438.5L536.5 440.0L536.5 448.0L537.5 449.0L537.5 451.0L541.0 453.5L565.5 454.0L565.5 468.0L563.0 469.5L535.0 469.5L534.0 468.5L530.0 468.5L526.0 466.5L520.5 461.0L518.5 457.0L518.5 394.0ZM195.5 409.0L206.0 408.5L207.5 410.0L207.5 420.0L206.0 422.5L195.5 422.0L195.5 410.0ZM278.5 409.0L290.0 408.5L291.5 410.0L291.5 452.0L289.0 453.5L279.0 453.5L277.5 451.0L278.0 409.5ZM170.5 483.0L225.5 483.0L225.5 505.0L187.5 543.0L225.0 543.5L225.5 558.0L224.0 559.5L172.0 559.5L170.5 558.0L170.5 534.0L204.5 499.0L172.0 498.5L170.5 497.0L170.5 484.0ZM246.5 483.0L273.0 482.5L274.5 484.0L275.5 486.0L275.5 490.0L276.5 491.0L276.5 495.0L277.5 496.0L277.5 500.0L278.5 501.0L278.5 506.0L279.5 507.0L279.5 511.0L280.5 512.0L282.5 526.0L283.5 527.0L283.5 532.0L284.5 533.0L284.5 537.0L285.5 538.0L287.5 552.0L288.5 553.0L288.5 558.0L287.0 559.5L272.0 559.5L270.0 558.5L269.5 555.0L268.5 554.0L267.0 541.5L254.0 541.5L252.5 545.0L251.5 556.0L249.0 559.5L233.0 559.5L231.5 558.0L232.5 551.0L233.5 550.0L234.5 540.0L235.5 539.0L235.5 535.0L236.5 534.0L236.5 530.0L237.5 529.0L237.5 524.0L238.5 523.0L238.5 519.0L239.5 518.0L239.5 514.0L240.5 513.0L240.5 509.0L241.5 508.0L241.5 504.0L242.5 503.0L242.5 499.0L243.5 498.0L243.5 493.0L244.5 492.0L244.5 488.0L245.5 487.0L246.0 483.5ZM295.5 483.0L312.0 482.5L313.5 484.0L314.0 512.5L321.5 512.0L323.5 508.0L323.5 506.0L325.5 503.0L325.5 501.0L327.5 498.0L327.5 496.0L332.5 486.0L332.5 484.0L334.0 482.5L350.5 483.0L350.5 486.0L348.5 489.0L348.5 491.0L346.5 494.0L346.5 496.0L344.5 499.0L344.5 501.0L339.5 512.0L339.5 513.0L345.5 519.0L347.5 524.0L347.5 558.0L345.0 559.5L330.0 559.5L328.5 558.0L328.5 531.0L326.0 528.5L313.5 529.0L313.0 558.5L311.0 559.5L297.0 559.5L294.5 558.0L295.0 483.5ZM357.5 483.0L402.5 483.0L403.5 485.0L403.5 496.0L401.0 498.5L375.5 499.0L376.0 512.5L397.0 512.5L398.5 514.0L398.5 528.0L376.0 528.5L375.5 539.0L376.5 541.0L380.0 543.5L403.0 543.5L404.5 545.0L404.5 558.0L402.0 559.5L374.0 559.5L373.0 558.5L368.0 558.5L360.5 553.0L357.5 548.0L357.5 544.0L356.5 543.0L356.5 485.0L357.5 484.0ZM412.5 483.0L436.0 482.5L437.5 484.0L437.5 486.0L438.5 487.0L446.5 513.0L448.5 516.0L451.0 525.5L451.5 484.0L453.0 482.5L469.0 482.5L470.5 484.0L470.5 558.0L468.0 559.5L447.0 559.5L444.5 557.0L431.0 516.5L430.5 557.0L428.0 559.5L414.0 559.5L411.5 558.0L412.0 483.5ZM259.5 503.0L260.5 503.0L260.5 505.0L261.5 506.0L261.5 511.0L262.5 512.0L262.5 517.0L263.5 518.0L263.5 523.0L264.5 524.0L264.0 526.5L256.5 526.0L256.5 521.0L257.5 520.0L257.5 514.0L258.5 513.0L259.5 504.0Z"></path>
</svg>